PathFileType	4	(X/Y/Z)	SUBJ26_2_walk_RCNL2025.trc
DataRate	CameraRate	NumFrames	NumMarkers	Units	OrigDataRate	OrigDataStartFrame	OrigNumFrames
100	100	4	25	mm	100	256	341
Frame#	Time	R_Shoulder			L_Shoulder			C7			J_Notch			R_Elbow			L_Elbow			R_Wrist			L_Wrist			R_Asis			L_Asis			Sacral			Thoracic			Sternum			R_Thigh_Lateral			R_Knee_Lateral			R_Shank_Lateral			R_Ankle_Lateral			R_Heel			R_Toe			L_Thigh_Lateral			L_Knee_Lateral			L_Shank_Lateral			L_Ankle_Lateral			L_Heel			L_Toe		
		X1	Y1	Z1	X2	Y2	Z2	X3	Y3	Z3	X4	Y4	Z4	X5	Y5	Z5	X6	Y6	Z6	X7	Y7	Z7	X8	Y8	Z8	X9	Y9	Z9	X10	Y10	Z10	X11	Y11	Z11	X12	Y12	Z12	X13	Y13	Z13	X14	Y14	Z14	X15	Y15	Z15	X16	Y16	Z16	X17	Y17	Z17	X18	Y18	Z18	X19	Y19	Z19	X20	Y20	Z20	X21	Y21	Z21	X22	Y22	Z22	X23	Y23	Z23	X24	Y24	Z24	X25	Y25	Z25
256	2.55000000	1723.851074	1303.125610	-23.933994	1674.853516	1315.150635	-354.726990	1618.943726	1372.471924	-165.261673	1759.981567	1271.813232	-200.929077	1692.629028	991.378662	93.002487	1576.973145	997.670532	-445.421906	1833.761475	782.094696	71.498646	1653.016968	762.392609	-453.776459	1744.867432	908.160278	-61.663712	1691.893311	902.438416	-358.677887	1516.184937	915.945496	-176.728119	1537.576050	1028.520142	-178.601364	1799.180786	1014.284485	-205.226410	1623.545532	577.521362	-21.376183	1582.705811	434.978668	-97.757561	1544.258301	285.657166	-59.328499	1509.412109	50.597393	-140.744781	1454.926636	43.083183	-198.683075	1630.203735	35.912617	-168.191345	1715.922607	595.113953	-408.360687	1790.591431	449.528107	-339.908905	1738.616943	282.238953	-404.532043	1723.311646	72.551506	-315.952332	1668.630493	58.743473	-253.709808	1840.560547	44.084858	-295.992767
257	2.56000000	1736.722290	1300.924561	-24.412071	1686.917358	1313.432861	-355.187927	1631.603638	1370.506470	-165.424850	1772.542969	1269.872559	-201.363159	1709.098022	989.628479	93.220284	1584.307983	996.623352	-444.492340	1852.576721	782.024750	71.207340	1656.118286	760.044525	-453.086716	1756.879028	906.242554	-61.390438	1705.174683	900.054016	-358.552826	1528.620850	914.213440	-177.634140	1549.992432	1026.634277	-179.219986	1811.734741	1012.615295	-205.714020	1626.835449	577.884399	-21.459684	1584.565063	436.110626	-97.849838	1544.522949	287.168518	-59.560787	1509.293701	51.691639	-141.390457	1455.246826	44.580521	-199.666077	1630.174561	35.781639	-168.108856	1731.682007	593.636169	-407.605896	1807.922974	448.131042	-338.280609	1766.661743	277.884186	-403.666656	1764.768066	67.019646	-315.812225	1710.510986	49.894405	-253.895081	1883.518555	45.194458	-295.552216
258	2.57000000	1749.571655	1298.575806	-24.942360	1699.068115	1311.556641	-355.706879	1644.260986	1368.397583	-165.693329	1785.145508	1267.828125	-201.833694	1725.552124	987.771179	93.284294	1591.851685	995.494202	-443.603241	1871.175659	781.731537	70.951361	1659.412231	757.673004	-452.429672	1769.013672	904.148071	-61.313950	1718.424194	897.583740	-358.608887	1541.157349	912.323730	-178.462753	1562.468262	1024.607666	-179.896210	1824.395508	1010.819397	-206.307037	1630.037354	578.456116	-21.586088	1586.959717	437.251923	-97.963509	1545.233154	288.742462	-59.869617	1509.243164	52.945606	-142.054840	1455.635742	46.267490	-200.688599	1630.208862	35.678532	-168.020447	1746.657593	591.721802	-406.610352	1824.753052	446.391296	-336.615204	1794.879395	273.781952	-402.836487	1805.928467	62.671837	-315.467651	1752.101196	42.452473	-253.998703	1925.752075	47.187183	-294.456329
259	2.58000000	1762.414307	1296.126221	-25.530357	1711.308960	1309.554810	-356.285339	1656.925049	1366.189209	-166.066864	1797.792358	1265.710938	-202.352158	1741.946167	985.845703	93.188599	1599.648926	994.297974	-442.768188	1889.520508	781.247314	70.721754	1662.926819	755.290344	-451.813400	1781.253662	901.900574	-61.412441	1731.663452	895.084106	-358.837891	1553.797852	910.299561	-179.239044	1575.001831	1022.475220	-180.646744	1837.171509	1008.910889	-207.009003	1633.506836	579.161377	-21.765005	1590.038574	438.348877	-98.100281	1546.499146	290.339600	-60.229546	1509.286011	54.337261	-142.689407	1456.092529	48.135353	-201.678635	1630.311035	35.610191	-167.931244	1760.833984	589.385742	-405.409546	1841.152954	444.383484	-334.903900	1823.000000	270.082520	-401.976959	1846.366699	59.544540	-314.886200	1792.985229	36.450039	-253.933426	1966.890747	50.032551	-292.765045
